<svg xmlns="http://www.w3.org/2000/svg" width="59" height="54" viewBox="0 0 59 54">
    <g fill="none" fill-rule="evenodd">
        <path d="M-9-11h75v75H-9z"/>
        <path fill="#000" fill-opacity=".87" fill-rule="nonzero" d="M19.887 40.313H8.637a1.25 1.25 0 0 0 0 2.5h11.25a1.25 1.25 0 0 0 0-2.5zM8.6 38.138H15a1.25 1.25 0 0 0 0-2.5H8.6a1.25 1.25 0 0 0 0 2.5z"/>
        <path fill="#000" fill-opacity=".87" fill-rule="nonzero" d="M42 49.712H4.125A3.825 3.825 0 0 1 .3 45.887V17.276a3.825 3.825 0 0 1 3.825-3.75h.625l.463-4.85a1.25 1.25 0 0 1 1.362-1.137l37.862 3.337-.387-7.5L3.575 5.5l.275 5.363a1.25 1.25 0 0 1-1.188 1.312A1.25 1.25 0 0 1 1.35 11L1 4.425a1.25 1.25 0 0 1 1.25-1.312L45.138.838a1.25 1.25 0 0 1 1.312 1.174l.475 9.026 2.5.224c.33.028.636.185.85.438.213.254.316.582.288.913l-.763 8.675a3.825 3.825 0 0 1 3 3.75V32.2L51.722 34h-1.817l.332-.575v-3.027V25.1a1.25 1.25 0 0 0-1.25-1.313H33.563a6.45 6.45 0 0 1-3.974-1.387l-6.876-5.475a3.925 3.925 0 0 0-2.412-.838H4.125a1.325 1.325 0 0 0-1.325 1.25v28.55a1.338 1.338 0 0 0 1.325 1.325H42v2.5zM7.6 10.137l-.35 3.325H20.3a6.375 6.375 0 0 1 3.975 1.388l5.9 4.7.338-3.838a1.25 1.25 0 0 1 1.362-1.137l11.925 1.05a1.25 1.25 0 0 1 1.138 1.35l-.363 4.188H47.3l.663-7.5L7.6 10.137zm34.462 11.088l.276-3.163-9.438-.825-.337 3.838c.325.093.661.144 1 .15h8.5z"/>
        <path fill="#EE2E24" fill-rule="nonzero" stroke="#EE2E24" d="M31.402 42.374c.052.546.43.994.962 1.133L42.2 46.11l.592 6.697a.666.666 0 0 0 .47.57.659.659 0 0 0 .709-.21l3.308-3.93 4.996 3.206c.222.144.48.216.745.207a1.31 1.31 0 0 0 1.237-1.085l3.328-20.773a.665.665 0 0 0-.926-.71L32.138 41.072a1.309 1.309 0 0 0-.736 1.301zM43.97 51.1l-.37-4.225 2.553 1.636L43.97 51.1zm8.982.201l-9.092-5.835 12.028-12.477-2.936 18.312zm1.552-18.795L42.611 44.842l-9.824-2.598 21.716-9.738z"/>
    </g>
</svg>
