<svg xmlns="http://www.w3.org/2000/svg" width="48" height="48" viewBox="0 0 48 48">
    <g fill="none" fill-rule="evenodd">
        <path d="M-6-6h60v60H-6z"/>
        <path fill="#EE2E24" fill-rule="nonzero" d="M46.15 10.58l-3.26-1.1-.89-3.3a1.75 1.75 0 0 0-3.09-.56l-2 2.76-3.43-.13A1.75 1.75 0 0 0 31.89 11l2 2.81-1.19 3.24a1.73 1.73 0 0 0 .38 1.8 1.71 1.71 0 0 0 1.79.46l3.28-1 2.71 2.11c.222.176.482.296.76.35.363.07.74.018 1.07-.15a1.7 1.7 0 0 0 1-1.55v-3.44l2.85-1.92a1.75 1.75 0 0 0-.42-3.11l.03-.02zM42.49 14a1.78 1.78 0 0 0-.77 1.43v3.07l-2.41-1.89a1.72 1.72 0 0 0-.77-.34 1.68 1.68 0 0 0-.83.05l-2.92.91 1.05-2.87a1.79 1.79 0 0 0-.22-1.62l-1.78-2.49 3.06.11a1.73 1.73 0 0 0 1.47-.71L40.2 7.2l.8 2.96c.161.55.578.99 1.12 1.18l2.9 1L42.49 14zM32.38 3.86a1 1 0 0 0 .88.51 1 1 0 0 0 .48-.12 1 1 0 0 0 .39-1.36L33.09 1a1.008 1.008 0 0 0-1.75 1l1.04 1.86zM36.5 3h.06a1 1 0 0 0 1-.95v-1a1.001 1.001 0 0 0-2-.1v1A1 1 0 0 0 36.5 3zM29 5.86l.87.48a1 1 0 0 0 .48.12 1 1 0 0 0 .48-1.87L30 4.11a1.008 1.008 0 1 0-1 1.75z"/>
        <path fill="#000" fill-opacity=".87" fill-rule="nonzero" d="M9 42.09a1.19 1.19 0 1 0 0 2.38 1.19 1.19 0 0 0 0-2.38z"/>
        <path fill="#000" fill-opacity=".87" fill-rule="nonzero" d="M41 33.65a3.65 3.65 0 0 0-1.53-3 3.63 3.63 0 0 0-2.78-6h-7.13a3.54 3.54 0 0 0-1.71.45 1.88 1.88 0 0 1-.17-1.1 17.09 17.09 0 0 0 .25-4.79 6.07 6.07 0 0 0-6.57-5.52 2.1 2.1 0 0 0-1.91 2.28l.06.67a13.33 13.33 0 0 1-1.94 8.15l-4.05 5.3a2.78 2.78 0 0 0-2.61-1.85H7.05A2.79 2.79 0 0 0 4.26 31v.25h-2.6a1 1 0 0 0 0 2h2.6v9.62h-2.6a1 1 0 0 0 0 2h2.6v.25a2.79 2.79 0 0 0 2.79 2.79h3.86a2.8 2.8 0 0 0 2.65-2 15.45 15.45 0 0 0 7.52 2h14.69a3.65 3.65 0 0 0 3.65-3.65 3.59 3.59 0 0 0-.79-2.26 3.66 3.66 0 0 0 1.66-3 3.61 3.61 0 0 0-.86-2.33A3.68 3.68 0 0 0 41 33.65zm-29.26 5v6.43a.8.8 0 0 1-.79.79h-3.9a.79.79 0 0 1-.79-.79V31a.79.79 0 0 1 .79-.79h3.86a.8.8 0 0 1 .79.79l.04 7.65zm17.86-12h7.09a1.65 1.65 0 0 1 0 3.3h-7.13a1.65 1.65 0 0 1 0-3.3h.04zM27.19 45.9h-6.11a13.52 13.52 0 0 1-6.79-1.84 1.19 1.19 0 0 1-.59-1v-9.57a1.19 1.19 0 0 1 .35-.85l.09-.1 5.07-6.65a15.33 15.33 0 0 0 2.29-9.46l-.06-.68c0-.05 0-.1.09-.11a4 4 0 0 1 3 .94 4 4 0 0 1 1.44 2.76 15.08 15.08 0 0 1-.22 4.24 3.77 3.77 0 0 0 .68 3 3.51 3.51 0 0 0-.09 3.42 3.64 3.64 0 0 0-.45 7.2 3.55 3.55 0 0 0-.45 1.8 3.64 3.64 0 0 0 2 3.23 3.68 3.68 0 0 0-.65 2.07 3.54 3.54 0 0 0 .4 1.6zm8.58 0h-5.35a1.65 1.65 0 0 1 0-3.3h5.35a1.65 1.65 0 0 1 0 3.3zm.87-5.3h-7.55a1.65 1.65 0 0 1 0-3.3h7.55a1.65 1.65 0 0 1 0 3.3zm.67-5.3H26.63a1.65 1.65 0 0 1 0-3.3h10.68a1.65 1.65 0 0 1 0 3.3z"/>
    </g>
</svg>
