<svg xmlns="http://www.w3.org/2000/svg" width="554" height="70" viewBox="0 0 554 70">
    <path fill="#000" fill-opacity=".12" fill-rule="nonzero" d="M549.649 32.723l-8.567-.86.15-1.493 11.416 1.146 1.326.134-.803 1.064-6.908 9.161-1.197-.903 5.184-6.875-2.485 1.087-.601-1.374 2.485-1.087zM.867 22.319l-.425-1.438c1.931-.571 3.853-1.13 5.766-1.678l.413 1.442A686.213 686.213 0 0 0 .867 22.32zm11.524-3.297l-.4-1.446a638.552 638.552 0 0 1 5.797-1.573l.386 1.45c-1.918.51-3.846 1.033-5.783 1.569zm11.583-3.084l-.371-1.453c1.951-.5 3.893-.986 5.825-1.46l.357 1.457c-1.927.472-3.864.958-5.81 1.456zm11.642-2.852l-.342-1.461c1.965-.46 3.919-.905 5.862-1.337l.325 1.464c-1.937.43-3.886.875-5.845 1.334zm11.7-2.6l-.31-1.468a502.56 502.56 0 0 1 5.89-1.203l.292 1.472c-1.946.385-3.904.784-5.872 1.198zM59.074 8.16L58.8 6.685c1.984-.367 3.957-.718 5.917-1.054l.254 1.478c-1.954.335-3.92.685-5.898 1.051zm11.812-2.024l-.233-1.482a422.06 422.06 0 0 1 5.943-.892l.212 1.484c-1.961.28-3.935.577-5.922.89zm11.851-1.692l-.19-1.488c2.004-.256 3.994-.495 5.97-.716l.167 1.49c-1.969.221-3.951.459-5.947.714zm11.9-1.33l-.143-1.494c2.012-.191 4.01-.365 5.992-.52l.116 1.496c-1.974.154-3.962.327-5.965.518zm11.945-.931l-.09-1.497c2.018-.121 4.02-.223 6.007-.304l.062 1.499c-1.978.08-3.97.182-5.98.302zm11.964-.488l-.032-1.5c2.022-.043 4.027-.064 6.015-.064v1.5c-1.978 0-3.972.021-5.983.064zm11.98 0l.033-1.5c2.023.045 4.027.112 6.014.202l-.067 1.498a258.65 258.65 0 0 0-5.98-.2zm11.933.54l.104-1.496c2.018.14 4.018.304 5.999.492l-.142 1.494a233.66 233.66 0 0 0-5.961-.49zm11.906 1.136l.183-1.49a182.903 182.903 0 0 1 5.969.824l-.23 1.483a181.406 181.406 0 0 0-5.922-.817zm11.82 1.821l.273-1.475c1.944.36 3.912.754 5.906 1.18l-.313 1.467a221.44 221.44 0 0 0-5.866-1.172zm11.709 2.496l.349-1.46c1.917.459 3.86.946 5.83 1.462l-.379 1.451a279.265 279.265 0 0 0-5.8-1.453zm11.573 3.024l.407-1.444c1.895.535 3.817 1.095 5.772 1.682l-.432 1.436a359.225 359.225 0 0 0-5.747-1.674zm11.48 3.442l.452-1.43c1.872.592 3.777 1.207 5.718 1.848l-.47 1.424a475.696 475.696 0 0 0-5.7-1.842zm11.37 3.749l.486-1.42c1.851.634 3.74 1.29 5.674 1.971l-.498 1.415c-1.93-.68-3.815-1.334-5.661-1.966zm11.312 3.98l.51-1.41c1.827.659 3.704 1.342 5.645 2.056l-.518 1.408a997.231 997.231 0 0 0-5.637-2.053zm90.326 32.614l.442-1.433c1.929.595 3.84 1.172 5.734 1.731l-.425 1.439c-1.9-.561-3.817-1.14-5.751-1.737zm11.515 3.398l.406-1.444c1.94.545 3.865 1.072 5.777 1.58l-.386 1.45c-1.918-.51-3.85-1.039-5.797-1.586zm11.624 3.088l.363-1.456c1.953.488 3.893.956 5.822 1.404l-.34 1.46c-1.936-.45-3.884-.919-5.845-1.408zm11.729 2.722l.314-1.467c1.966.421 3.92.82 5.865 1.2l-.287 1.472c-1.954-.38-3.917-.782-5.892-1.205zm11.804 2.298l.258-1.478a290.6 290.6 0 0 0 5.906.97l-.228 1.482a292.11 292.11 0 0 1-5.936-.974zm11.9 1.823l.195-1.487c1.97.258 3.95.49 5.94.695l-.155 1.492c-2.003-.207-3.996-.44-5.98-.7zm11.974 1.24l.115-1.495c1.98.152 3.97.28 5.969.382l-.077 1.498c-2.012-.103-4.014-.231-6.007-.384zm12.039.616l.039-1.5c1.985.052 3.98.079 5.983.082l-.002 1.5c-2.016-.003-4.023-.03-6.02-.082zm12.025.018l-.034-1.5c1.985-.043 3.978-.111 5.981-.202l.068 1.498c-2.014.092-4.02.16-6.015.204zm12.037-.546l-.102-1.496c1.98-.135 3.97-.292 5.967-.471l.134 1.494c-2.008.18-4.008.338-6 .473zm11.997-1.076l-.166-1.491c1.972-.22 3.953-.46 5.942-.722l.196 1.487c-1.999.264-3.99.505-5.972.726zM444.5 66.51l-.225-1.483c1.963-.298 3.933-.617 5.912-.956l.253 1.479c-1.988.34-3.968.66-5.94.96zm11.867-2.033l-.28-1.473c1.95-.371 3.906-.762 5.871-1.173l.307 1.468c-1.974.413-3.94.805-5.898 1.178zm11.778-2.46l-.332-1.462c1.935-.44 3.878-.898 5.828-1.375l.356 1.457c-1.958.48-3.909.94-5.852 1.38zm11.697-2.86l-.38-1.45c1.92-.503 3.847-1.023 5.781-1.562l.402 1.445a387.18 387.18 0 0 1-5.803 1.567zm11.595-3.226l-.424-1.44a413.08 413.08 0 0 0 5.732-1.733l.444 1.432a414.589 414.589 0 0 1-5.752 1.74zm11.436-3.549l-.465-1.426a442.002 442.002 0 0 0 5.682-1.894l.484 1.42c-1.907.65-3.807 1.283-5.701 1.9zm11.388-3.88l-.502-1.414c1.87-.665 3.747-1.346 5.63-2.043l.52 1.407a474.204 474.204 0 0 1-5.648 2.05zm11.275-4.17l-.537-1.4a504.997 504.997 0 0 0 5.58-2.181l.554 1.393a506.518 506.518 0 0 1-5.597 2.188zm11.164-4.438l-.57-1.387c1.837-.755 3.68-1.525 5.529-2.309l.585 1.381a540.342 540.342 0 0 1-5.544 2.315z"/>
</svg>
