<svg xmlns="http://www.w3.org/2000/svg" width="59" height="59" viewBox="0 0 59 59">
    <g fill="none" fill-rule="evenodd">
        <path d="M-8-8h75v75H-8z"/>
        <path fill="#EE2E24" fill-rule="nonzero" d="M21.288 28.05l3.975-2.088 3.974 2.088a1.5 1.5 0 0 0 2.176-1.575L30.65 22l3.225-3.137c.405-.402.55-.996.375-1.538A1.475 1.475 0 0 0 33 16.313l-4.4-.563-2-4.025a1.462 1.462 0 0 0-1.337-.838c-.57 0-1.09.326-1.338.838L22 15.75l-4.45.65c-.58.06-1.07.457-1.25 1.013a1.5 1.5 0 0 0 .387 1.537L19.875 22l-.762 4.425a1.5 1.5 0 0 0 1.474 1.825c.247-.005.488-.074.7-.2zm-1.425-9.512l2.962-.425a1.5 1.5 0 0 0 1.113-.813l1.325-2.688 1.324 2.676c.215.444.637.753 1.125.825l2.95.425-2.137 2.087c-.369.355-.53.874-.425 1.375l.5 2.938-2.65-1.438a1.462 1.462 0 0 0-.687-.163 1.55 1.55 0 0 0-.7.163l-2.638 1.388.5-2.938A1.487 1.487 0 0 0 22 20.625l-2.137-2.087z"/>
        <path fill="#000" fill-opacity=".87" fill-rule="nonzero" d="M31.925 51.125H18.6a1.25 1.25 0 0 0 0 2.5h13.325a1.25 1.25 0 0 0 0-2.5z"/>
        <path fill="#000" fill-opacity=".87" fill-rule="nonzero" d="M57 56.125h-5.638a15 15 0 0 0-12.35-26.862v-1.5A7.35 7.35 0 0 0 42.9 25.75l2.85-2.863a5.362 5.362 0 0 0 1.587-3.825V12.45a3.75 3.75 0 0 0-3.75-3.75h-4.575V7a3.337 3.337 0 1 0 0-6.662h-27.5a3.337 3.337 0 1 0 0 6.662v1.663H6.925a3.75 3.75 0 0 0-3.75 3.75v6.612a5.387 5.387 0 0 0 1.587 3.825l2.863 2.9a7.263 7.263 0 0 0 3.887 2.013v2.187a8.75 8.75 0 0 0 6.663 8.488v3.412h-2.913c-.69 0-1.25.56-1.25 1.25v3.025H9.425a3.75 3.75 0 0 0-3.75 3.75v6.25H2a1.25 1.25 0 0 0 0 2.5h55a1.25 1.25 0 0 0 0-2.5zM42.288 39.35l-.825-.188 2-2 2.874.626-2.162 10a3.75 3.75 0 0 0-2.1-1.475l1.175-5.476a1.25 1.25 0 0 0-.962-1.487zm13.287 4.3A12.5 12.5 0 0 1 44.85 55.987v-2.962a1.25 1.25 0 0 0 .95-.95l3.25-15a1.25 1.25 0 0 0-.962-1.488l-4.763-1.037a1.25 1.25 0 0 0-1.15.338l-4.1 4.1A1.25 1.25 0 0 0 38.7 41.1l1.837.4-1.037 4.625h-2.987V43.1c0-.69-.56-1.25-1.25-1.25H32.35v-3.413A8.75 8.75 0 0 0 38.775 32a12.413 12.413 0 0 1 16.8 11.675v-.025zM43.6 11.15c.69 0 1.25.56 1.25 1.25v6.612a2.863 2.863 0 0 1-.863 2.063l-2.85 2.85a4.712 4.712 0 0 1-2.124 1.25V11.2l4.587-.05zm-32.925-7.5a.837.837 0 0 1 .837-.825h27.5a.838.838 0 1 1 0 1.663h-27.5a.837.837 0 0 1-.837-.788v-.05zm-1.25 20.275l-2.888-2.8a2.913 2.913 0 0 1-.862-2.063V12.45c0-.69.56-1.25 1.25-1.25h4.587v13.988a4.775 4.775 0 0 1-2.125-1.213l.038-.05zM14.05 29.9V7h22.5v22.95a6.25 6.25 0 0 1-6.25 6.25h-10a6.25 6.25 0 0 1-6.288-6.25l.038-.05zm6.662 8.75h9.176v3.15h-9.213l.037-3.15zM16.55 44.3h17.5v1.825h-17.5V44.3zm-8.375 5.575c0-.69.56-1.25 1.25-1.25H41.1c.69 0 1.25.56 1.25 1.25v6.25H8.175v-6.25z"/>
    </g>
</svg>
