<svg xmlns="http://www.w3.org/2000/svg" width="28" height="28" viewBox="0 0 28 28">
    <path fill="#EE2E24" fill-rule="evenodd" d="M14.006 26.287c6.778 0 12.294-5.516 12.294-12.293C26.3 7.216 20.784 1.7 14.006 1.7 7.23 1.7 1.713 7.216 1.713 13.994c0 6.777 5.516 12.293 12.293 12.293zM14 27.75A13.732 13.732 0 0 1 .25 14C.25 6.392 6.392.25 14 .25S27.75 6.392 27.75 14 21.608 27.75 14 27.75zm.8-19.92v7.578c0 .52-.344.917-.794.917-.45 0-.794-.397-.794-.917V7.83c0-.52.344-.917.794-.917.45 0 .794.428.794.917zm-.737 13.133a1.04 1.04 0 0 1-1.038-1.038c0-.57.467-1.037 1.038-1.037.57 0 1.037.466 1.037 1.037a1.04 1.04 0 0 1-1.037 1.038z"/>
</svg>
