<svg xmlns="http://www.w3.org/2000/svg" width="69" height="62" viewBox="0 0 69 62">
    <g fill="none" fill-rule="evenodd">
        <path d="M-3-1h75v75H-3z"/>
        <path fill="#000" fill-opacity=".87" fill-rule="nonzero" d="M67.1 27.225L52.513 12.637a3.75 3.75 0 0 0-5.25 0l-2.038 2.038a3.75 3.75 0 0 0-.163 5.063 8.55 8.55 0 0 1-6.55 1.937 11.038 11.038 0 0 0-6.35 1.137h-.087l-5-.637a2.5 2.5 0 0 1-1.475-.725l-1.663-1.662A3.75 3.75 0 0 0 23.8 14.7l-2.038-2.037a3.75 3.75 0 0 0-5.25 0L1.9 27.224a3.75 3.75 0 0 0 0 5.25l2.038 2.038a3.75 3.75 0 0 0 5.087.137l3.2 3.188c.487.5.84 1.114 1.025 1.787A14.4 14.4 0 0 0 17 46.087a4.15 4.15 0 0 0 3.663 6.1 4.138 4.138 0 0 0 4.162 4.163 4.213 4.213 0 0 0 1.25 2.95 4.125 4.125 0 0 0 4.887.713l.226.224a4.138 4.138 0 0 0 6.825-1.5l.512.513a4.15 4.15 0 0 0 5.888 0c.413-.425.725-.938.912-1.5l.612.612a4.163 4.163 0 0 0 5.888-5.887l-.613-.613c.562-.2 1.07-.524 1.488-.95a4.125 4.125 0 0 0 1.25-2.937 4.063 4.063 0 0 0-.475-1.888l.237-.25a11.375 11.375 0 0 0 3.163-5.912 8.95 8.95 0 0 1 2.5-4.675l.638-.638a3.75 3.75 0 0 0 5.087-.137l2.038-2.038a3.75 3.75 0 0 0-.038-5.212zM5.663 32.75l-2.038-1.987a1.25 1.25 0 0 1 0-1.763L18.25 14.363a1.25 1.25 0 0 1 1.813 0L22 16.4a1.25 1.25 0 0 1 0 1.813L7.475 32.75a1.25 1.25 0 0 1-1.813 0zM19.5 49.275a1.737 1.737 0 0 1 0-2.5 1.737 1.737 0 0 1 2.438 0 1.746 1.746 0 0 1-2.438 2.5zm4.163 4.163a1.725 1.725 0 0 1 1.25-2.95c.467-.014.92.167 1.25.5a1.75 1.75 0 0 1 0 2.5 1.762 1.762 0 0 1-2.563-.05h.063zm4.162 4.162a1.725 1.725 0 0 1 0-2.5 1.762 1.762 0 0 1 1.25-.5 1.725 1.725 0 1 1-1.25 2.95v.05zm23.225-8.363c-.695.68-1.805.68-2.5 0L35.862 36.5a1.25 1.25 0 1 0-1.724 1.725L50.1 54.237c.332.331.517.782.512 1.25a1.7 1.7 0 0 1-.512 1.25 1.737 1.737 0 0 1-2.438 0L31.7 40.712a1.25 1.25 0 0 0-1.725 1.725l12.688 12.675a1.768 1.768 0 0 1-2.5 2.5L27.538 44.875a1.25 1.25 0 0 0-1.726 1.725l9.5 9.5a1.768 1.768 0 0 1-2.5 2.5l-.224-.225a4.125 4.125 0 0 0-3.663-6.087 4.075 4.075 0 0 0-4.163-4.125 4.137 4.137 0 0 0-6.087-3.75A11.95 11.95 0 0 1 15.6 39a6.25 6.25 0 0 0-1.662-2.875L10.75 32.95 22.2 21.5l1.65 1.65a5 5 0 0 0 2.887 1.413l2.576.325-6.15 6.15a4.687 4.687 0 1 0 6.625 6.625l4.137-4.138a3.462 3.462 0 0 1 2.838-.962l14.224 14.224c.33.332.51.783.5 1.25-.005.45-.184.88-.5 1.2h.063zm3.45-9.75a9.087 9.087 0 0 1-2.5 4.675l-.087.088-9.663-9.638a16.55 16.55 0 0 0 3.75.526 1.163 1.163 0 0 0 1.25-1.188c0-.69-.56-1.25-1.25-1.25a14.738 14.738 0 0 1-6.763-1.85 5.95 5.95 0 0 0-7.087.938l-4.137 4.137a2.25 2.25 0 1 1-3.126-3.175l6.25-6.25a8.575 8.575 0 0 1 7.113-2.413 10.975 10.975 0 0 0 8.513-2.587L58.25 32.95l-.625.612a11.437 11.437 0 0 0-3.125 5.925zm10.912-8.75l-2.075 2.013a1.25 1.25 0 0 1-1.812 0L47 18.212a1.25 1.25 0 0 1 0-1.812l2.038-2.037a1.25 1.25 0 0 1 1.812 0L65.375 29a1.25 1.25 0 0 1 0 1.763l.037-.026z"/>
        <path fill="#EE2E24" fill-rule="nonzero" d="M53.544 5.143a1.009 1.009 0 0 1-.648-1.27l.623-1.92a1.009 1.009 0 0 1 1.919.624l-.624 1.918c-.172.53-.74.82-1.27.648zM45.035 3.98l-.404-1.987a1.009 1.009 0 0 1 1.971-.42l.404 1.987a1.009 1.009 0 1 1-1.97.42zm-8.107 2.53a1.009 1.009 0 1 1 1.498-1.348l1.348 1.498a1.009 1.009 0 1 1-1.498 1.348L36.928 6.51zm22.763 2.624a1.009 1.009 0 0 1 .06-1.455l1.497-1.348a1.009 1.009 0 0 1 1.348 1.499l-1.504 1.367a1.009 1.009 0 0 1-1.401-.063zm4.53 7.304a1.009 1.009 0 1 1-.42-1.97l1.971-.42a1.009 1.009 0 1 1 .42 1.97l-1.971.42z"/>
    </g>
</svg>
