<svg xmlns="http://www.w3.org/2000/svg" width="50" height="50" viewBox="0 0 50 50">
    <g fill="none" fill-rule="evenodd">
        <path d="M-5-5h60v60H-5z"/>
        <path fill="#000" fill-opacity=".87" fill-rule="nonzero" d="M23.36 0a1 1 0 0 0-1 1v1.86A23.43 23.43 0 0 0 11.56 6a1 1 0 0 0-.36 1.36l.57 1a21.54 21.54 0 0 0-9.85 17.05h-.69a1 1 0 0 0-1 1v15.15a1 1 0 0 0 1 1h8a21.88 21.88 0 0 0 4.17 2.86l-.49 1a1 1 0 0 0 .48 1.33 23.61 23.61 0 0 0 33.53-20.34h1.85a1 1 0 0 0 1-1C49.753 11.831 37.939.017 23.36 0zm-.47 25.41h-5.5a6.06 6.06 0 1 1 6.5 7v-6a1 1 0 0 0-1-1zm-.53-20.56v13.57a7.68 7.68 0 0 0-2.14.57L13.44 7.24a21.44 21.44 0 0 1 8.92-2.39zm-9.59 5.23L18.5 20a8 8 0 0 0-3.13 5.41H3.92a19.53 19.53 0 0 1 8.85-15.33zM2.23 27.41h19.66v13.15H2.23V27.41zm10.25 15.15h2.24l-.48 1a19.45 19.45 0 0 1-1.76-1zM23.36 48a21.42 21.42 0 0 1-8.21-1.61l1.78-3.83h6a1 1 0 0 0 1-1v-7.12a8.06 8.06 0 0 0 7.46-7h13.53C44.36 38.944 34.877 47.987 23.36 48zM46 25.41H31.35a8.09 8.09 0 0 0-7-7V2c12.7.535 22.87 10.71 23.4 23.41H46z"/>
        <path fill="#EE2E24" fill-rule="nonzero" d="M5.14 32.92h6.2a1 1 0 0 0 0-2h-6.2a1 1 0 0 0 0 2zM16.29 35.05H5.14a1 1 0 0 0 0 2h11.15a1 1 0 0 0 0-2z"/>
    </g>
</svg>
