<svg xmlns="http://www.w3.org/2000/svg" width="45" height="53" viewBox="0 0 45 53">
    <g fill="none" fill-rule="evenodd" transform="translate(-8 -4)">
        <path d="M0 0h60v60H0z"/>
        <path d="M0 0h60v60H0z"/>
        <rect width="10.56" height="4.32" x="24.71" y="5" rx=".96"/>
        <path fill="#000" fill-opacity=".87" fill-rule="nonzero" d="M30 23.64a1 1 0 0 0 1-1v-1.75a1 1 0 0 0-2 0v1.75a1 1 0 0 0 1 1zM22.66 42.76a1.004 1.004 0 1 0-1.42-1.42L20 42.58A1.004 1.004 0 1 0 21.42 44l1.24-1.24zM19.62 34a1 1 0 0 0-1-1h-1.75a1 1 0 0 0 0 2h1.75a1 1 0 0 0 1-1zM30 44.38a1 1 0 0 0-1 1v1.75a1 1 0 0 0 2 0v-1.75a1 1 0 0 0-1-1zM38.74 41.34a1 1 0 0 0-1.41 0 1 1 0 0 0 0 1.41L38.56 44A1 1 0 0 0 40 44a1 1 0 0 0 0-1.41l-1.26-1.25zM38.56 24l-1.23 1.24a1 1 0 0 0 0 1.41 1 1 0 0 0 1.41 0L40 25.44A1.018 1.018 0 0 0 38.56 24z"/>
        <path fill="#000" fill-opacity=".87" fill-rule="nonzero" d="M49.77 19.52a1 1 0 0 0 1.07-.22l.31-.32a4 4 0 1 0-5.65-5.65l-.32.31a1 1 0 0 0-.18 1.07l-1.75 1.75a21.94 21.94 0 0 0-9.82-4.18v-2h.92a2 2 0 0 0 2-2V6a2 2 0 0 0-2-2h-8.68a2 2 0 0 0-2 2v2.4a2 2 0 0 0 2 2h.92v2A22 22 0 1 0 48 21.34l1.77-1.82zm0-4.78a2 2 0 0 1 .34 2.38l-2.75-2.72a2 2 0 0 1 2.38.34h.03zm-3.43 1.45l2 2-1.58 1.58a19.37 19.37 0 0 0-2-2l1.58-1.58zM25.71 8.36V6h8.6v2.32l-8.6.04zm5.68 2v1.74c-.46 0-.93-.05-1.4-.05-.47 0-.93 0-1.4.05v-1.78l2.8.04zM30 54c-11.046 0-20-8.954-20-20s8.954-20 20-20 20 8.954 20 20-8.954 20-20 20z"/>
        <path fill="#000" fill-opacity=".87" fill-rule="nonzero" d="M30 16.21A17.8 17.8 0 1 0 47.79 34c-.017-9.818-7.972-17.773-17.79-17.79zm0 33.59A15.8 15.8 0 1 1 45.79 34c0 8.722-7.068 15.794-15.79 15.8z"/>
        <path fill="#EE2E24" fill-rule="nonzero" d="M35.31 34a5.3 5.3 0 0 0-5.14-5.3L23 23.25A2.68 2.68 0 0 0 19.25 27l5.44 7.17A5.31 5.31 0 0 0 35.31 34zm-14.46-8.2a.67.67 0 0 1 .07-.88.66.66 0 0 1 .86-.07l5.83 4.42a5.34 5.34 0 0 0-2.35 2.35l-4.41-5.82zm5.82 8.2a3.32 3.32 0 1 1 6.64.02 3.32 3.32 0 0 1-6.64-.02z"/>
        <path fill="#000" fill-opacity=".87" fill-rule="nonzero" d="M40.36 34a1 1 0 0 0 1 1h1.75a1 1 0 0 0 0-2h-1.75a1 1 0 0 0-1 1z"/>
    </g>
</svg>
