<svg xmlns="http://www.w3.org/2000/svg" width="52" height="44" viewBox="0 0 52 44">
    <g fill="none" fill-rule="evenodd">
        <path d="M-4-8h60v60H-4z"/>
        <path fill="#000" fill-opacity=".87" fill-rule="nonzero" d="M50.67 21h-1v-7a3 3 0 0 0-3-3h-2.25l-1.16-4.34a3 3 0 0 0-3.67-2.12l-1.1.3L37 1.71a3 3 0 0 0-4-1.45L9.93 11H8.67a3 3 0 0 0-3 3v11.24a9.66 9.66 0 0 0 4 18.45h37a3 3 0 0 0 3-3v-7h1a1 1 0 0 0 1-1V22a1 1 0 0 0-1-1zM33.87 2a1 1 0 0 1 1.33.48l1.32 2.84-9.1 2.44a1.004 1.004 0 0 0 .52 1.94l12.17-3.26a1 1 0 0 1 1.22.7l1 3.82H14.66L33.87 2zM2 34a7.67 7.67 0 1 1 7.67 7.66A7.68 7.68 0 0 1 2 34zm45.67 3H29.44a1 1 0 0 0 0 2h18.23v1.66a1 1 0 0 1-1 1H15.53A9.49 9.49 0 0 0 17.92 39h2.75a1 1 0 0 0 0-2h-1.82A9.66 9.66 0 0 0 7.67 24.54V14a1 1 0 0 1 1-1h38a1 1 0 0 1 1 1v7H37.33a3.66 3.66 0 0 0-3.66 3.66V30a3.66 3.66 0 0 0 3.66 3.66h10.34V37zm2-5.34H37.33A1.66 1.66 0 0 1 35.67 30v-5.31A1.66 1.66 0 0 1 37.33 23h12.34v8.66z"/>
        <path fill="#000" fill-opacity=".87" fill-rule="nonzero" d="M38.67 28.36h1.5a1 1 0 0 0 0-2h-1.5a1 1 0 0 0 0 2zM25.33 37H24a1 1 0 0 0 0 2h1.33a1 1 0 0 0 0-2z"/>
        <path fill="#EE2E24" fill-rule="nonzero" d="M5.585 33.55a.83.83 0 0 0 1.064.495l2.676-.974a1.56 1.56 0 0 1-.952 1.12l-1.476.537a.818.818 0 0 0-.05 1.528l4.957 2.14a.83.83 0 0 0 .658-1.525L9.369 35.53a3.144 3.144 0 0 0 1.645-3.073l.793-.289a.83.83 0 0 0-.568-1.56l-.793.29c-.133-.173-.292-.336-.51-.588l1.055-.384a.83.83 0 0 0-.568-1.56l-5.158 1.878a.83.83 0 1 0 .568 1.56l1.476-.538a1.56 1.56 0 0 1 1.449.246l-2.677.974a.83.83 0 0 0-.496 1.063z"/>
    </g>
</svg>
